<?xml version="1.0" encoding="utf-8"?>
<!-- Generator: Adobe Illustrator 23.0.1, SVG Export Plug-In . SVG Version: 6.00 Build 0)  -->
<svg version="1.1" id="Livello_1" xmlns="http://www.w3.org/2000/svg" xmlns:xlink="http://www.w3.org/1999/xlink" x="0px" y="0px"
	 viewBox="0 0 532.2 63.4" style="enable-background:new 0 0 532.2 63.4;" xml:space="preserve">
	<g>
		<path d="M50.4,52L37.8,63.4H12.6L0,52V40.2h12.6v8.9l3.2,2.9h12.6l3.2-2.9v-8.5l-1.6-1.4l-17.5-1.6L0,26.3V11.7L12.6,0.4h21.6
			l12.6,11.3v7.7H34.2v-5.3l-2.8-2.4H22l-3.2,2.9v5.1l1.7,1.6l17.4,1.6l12.6,11.3V52z"/>
		<path d="M78.7,63.4H60v-63h18.7V63.4z"/>
		<path d="M139.2,52l-12.6,11.3h-25.2L88.8,52V40.2h12.6v8.9l3.2,2.9h12.6l3.2-2.9v-8.5l-1.6-1.4l-17.5-1.6L88.8,26.3V11.7l12.6-11.3
			H123l12.6,11.3v7.7H123v-5.3l-2.8-2.4h-9.4l-3.2,2.9v5.1l1.7,1.6l17.4,1.6l12.6,11.3V52z"/>
		<path d="M177.7,11.7v51.7h-18.7V11.7h-16.2V0.4h51.1v11.3H177.7z"/>
		<path d="M246.1,63.4h-43.6v-63h42.2v11.3h-23.5v13.9h12.1V37h-12.1v15h24.8V63.4z"/>
		<path d="M309.9,63.4h-18.7L284.7,52V40.8l-2.9-2.6h-7.6v25.2h-18.7v-63h37.8l12.6,11.3v13.5L293.5,32l9.9,6.9v13.9L309.9,63.4z
			 M287.1,14.6l-3.2-2.9h-9.7v15.1h9.7l3.2-2.9V14.6z"/>
		<path d="M342.9,53.1h-15.8l-3.3,10.3h-13L333,0h9.7l22.2,63.4h-18.6L342.9,53.1z M339.7,43.4L335,28.8l-4.8,14.6H339.7z"/>
		<path d="M393.7,11.7v51.7H375V11.7h-16.2V0.4h51.1v11.3H393.7z"/>
		<path d="M466.6,11.7V52L454,63.4h-25.2L416.2,52V11.7l12.6-11.3H454L466.6,11.7z M438.2,11.7l-3.2,2.9v34.6l3.2,2.9h6.5l3.2-2.9
			V14.6l-3.2-2.9H438.2z"/>
		<path d="M532.2,63.4h-18.7L507,52V40.8l-2.9-2.6h-7.6v25.2h-18.7v-63h37.8l12.6,11.3v13.5L515.8,32l9.9,6.9v13.9L532.2,63.4z
			 M509.4,14.6l-3.2-2.9h-9.7v15.1h9.7l3.2-2.9V14.6z"/>
	</g>
</svg>
