<?xml version="1.0" encoding="utf-8"?>
<!-- Generator: Adobe Illustrator 23.0.1, SVG Export Plug-In . SVG Version: 6.00 Build 0)  -->
<svg version="1.1" id="Livello_1" xmlns="http://www.w3.org/2000/svg" xmlns:xlink="http://www.w3.org/1999/xlink" x="0px" y="0px"
	 viewBox="0 0 3628.3 3186.1" style="enable-background:new 0 0 3628.3 3186.1;" xml:space="preserve">
<style type="text/css">
	.st0{fill:#F0F8FF;}
	.st1{fill:#FEDA32;}
	.st2{fill:#4D4D4D;}
	.st3{fill:none;stroke:#FFFFFF;stroke-width:10;}
	.st4{fill:#FFFFFF;}
	.st5{fill:#EB5D78;}
	.st6{fill:#EB5D78;fill-opacity:0;}
	.st7{stroke:#FFFFFF;stroke-width:10;}
</style>
<rect id="background" y="0" class="st0" width="3628.3" height="3186.1"/>
<g>
	<ellipse class="st1" cx="1814.1" cy="2037.7" rx="1814.2" ry="1189.5"/>
	<g id="bat-suit">
		<polyline class="st2" points="1982.3,759.3 1916.4,954.5 2048.2,954.5 1982.3,759.3 		"/>
		<polyline class="st2" points="1646,759.3 1711.9,954.5 1580.1,954.5 1646,759.3 		"/>
	</g>
	<path class="st2" d="M2205.5,1720.3c66.8,100.7,163.8,187,331.4,140.4c164-45.7,216.5-175.9,187.9-279
		c-23.1-83-77.6-176.8-174.8-231.7c539.1-150,968.9,169.9,1031,393.1c50.2,180.3,5.7,374.2-68.5,493.3
		c-74.2,119.1-263.3,297-287.1,318.5c40.7-121.7,37.4-219.2,13.3-263.2c-24.2-44-72.7-114-195.2-79.9
		c-113.5,31.6-218.9,195.1-235.1,235.4c0,0-125.2-135.7-230-106.5c-103.2,28.7-116.8,63.4-159.9,144l-212.8-764.4L2205.5,1720.3z"/>
	<path class="st2" d="M1422.7,1720.3L1210,2484.8c-43.2-80.6-56.8-115.3-159.9-144c-104.8-29.2-230,106.5-230,106.5
		c-16.3-40.3-121.6-203.8-235.1-235.4c-122.5-34.1-171,35.9-195.2,79.9c-24.1,44-27.4,141.5,13.3,263.2
		c-23.8-21.5-212.9-199.4-287.1-318.5c-74.2-119.2-118.7-313-68.5-493.3c62.1-223.2,491.9-543.1,1031-393.1
		c-97.3,54.9-151.8,148.7-174.8,231.7c-28.7,103.1,23.8,233.3,187.9,279c167.5,46.6,264.6-39.6,331.4-140.4L1422.7,1720.3z"/>
</g>
<g id="nun">
	<g id="body">
		<circle id="shoulders" class="st2" cx="1814.2" cy="2198" r="615"/>
		<rect id="trunk" x="1199.2" y="2199.9" class="st2" width="1230" height="985.5"/>
		<line id="hinge" class="st3" x1="1814.2" y1="1583" x2="1814.2" y2="3188.6"/>
	</g>
	<path id="back-veil" class="st2" d="M1468.8,1580.9v-490.4c0-87.4,70.8-158.2,158.2-158.2h374.3c87.4,0,158.2,70.8,158.2,158.2
		V1581L1468.8,1580.9L1468.8,1580.9z"/>
	<g id="visage" transform="translate(0, -327.5200000000002)">
		<path id="face" class="st1" d="M1714.7,1322.3h198.9c99.4,0,180,80.6,180,180V1673c0,99.4-80.6,180-180,180h-198.9
			c-99.4,0-180-80.6-180-180v-170.7C1534.7,1402.9,1615.3,1322.3,1714.7,1322.3z"/>
		<g>
			<g id="left-eye">
				<circle id="left-eye-sclera" class="st4" cx="1667.8" cy="1558.9" r="60"/>
				<circle id="left-eye-pupil" cx="1667.8" cy="1558.9" r="36"/>
			</g>
			<g id="right-eye">
				<circle id="right-eye-sclera" class="st4" cx="1960.5" cy="1558.9" r="60"/>
				<circle id="right-eye-pupil" cx="1960.5" cy="1558.9" r="36"/>
			</g>
		</g>
		<polygon id="nose-1" class="st5" points="1780.4,1659.9 1814.2,1605.7 1814.2,1605.7 1848,1659.9 		"/>
		<circle id="nose-2" class="st6" cx="1814.2" cy="1638.9" r="26.2"/>
		<path id="nose-3" class="st6" d="M1827.5,1665.1h-26.6c-2.9,0-5.2-2.6-4.8-5.5l10.5-83.3c0.3-2.4,2.4-4.3,4.8-4.3h6.6
			c2.5,0,4.6,1.9,4.9,4.3l9.6,83.3C1832.7,1662.5,1830.4,1665.1,1827.5,1665.1z"/>
		<path id="mouth" class="st7" d="M1855.7,1722.1c0,22.9-18.6,41.5-41.5,41.5s-41.5-18.6-41.5-41.5"/>
		<g id="front-veil">
			<rect x="1534.7" y="1322.3" class="st4" width="558.8" height="78.2"/>
			<rect id="variable-front-veil" x="1534.7" y="1361.6" class="st4" width="558.8" height="114"/>
		</g>
	</g>
</g>
</svg>
