<?xml version="1.0" encoding="utf-8"?>
<!-- Generator: Adobe Illustrator 23.0.1, SVG Export Plug-In . SVG Version: 6.00 Build 0)  -->
<svg version="1.1" id="Livello_1" xmlns="http://www.w3.org/2000/svg" xmlns:xlink="http://www.w3.org/1999/xlink" x="0px" y="0px"
	 viewBox="0 0 3628.3 3186.1" style="enable-background:new 0 0 3628.3 3186.1;" xml:space="preserve">
<style type="text/css">
	.st0{fill:#F0F8FF;}
	.st1{fill:none;stroke:#FFFFFF;stroke-width:10;}
	.st2{fill:#FEDA32;}
	.st3{fill:#FFFFFF;}
	.st4{fill:#EB5D78;}
	.st5{stroke:#FFFFFF;stroke-width:10;}
	.st6{fill:none;stroke:#F0F8FF;stroke-width:2;stroke-miterlimit:10;}
</style>
<rect id="background" y="0" class="st0" width="3628.3" height="3186.1"/>
<g id="nun">
	<g id="body">
		<circle id="shoulders" cx="1814.2" cy="2198" r="311.1"/>
		<rect id="trunk" x="1503.9" y="2199.9" width="620.5" height="985.5"/>
		<line id="hinge" class="st1" x1="1814.2" y1="1886.9" x2="1814.2" y2="3188.6"/>
	</g>
	<path id="back-veil" d="M1468.8,1908.4V1418c0-87.4,70.8-158.2,158.2-158.2h374.3c87.4,0,158.2,70.8,158.2,158.2v490.5
		L1468.8,1908.4L1468.8,1908.4z"/>
	<g id="visage">
		<rect id="face" x="1534.7" y="1322.3" class="st2" width="558.9" height="530.7"/>
		<g>
			<g id="left-eye">
				<circle id="left-eye-sclera" class="st3" cx="1667.8" cy="1558.9" r="44.1"/>
				<circle id="left-eye-pupil" cx="1667.8" cy="1558.9" r="21.8"/>
			</g>
			<g id="right-eye">
				<circle id="right-eye-sclera" class="st3" cx="1960.5" cy="1558.9" r="44.1"/>
				<circle id="right-eye-pupil" cx="1960.5" cy="1558.9" r="21.8"/>
			</g>
		</g>
		<polygon id="nose" class="st4" points="1780.4,1659.9 1814.2,1605.7 1814.2,1605.7 1848,1659.9 		"/>
		<path id="mouth" class="st5" d="M1855.7,1722.1c0,22.9-18.6,41.5-41.5,41.5s-41.5-18.6-41.5-41.5"/>
		<g id="front-veil">
			<rect x="1534.7" y="1322.3" class="st3" width="558.8" height="78.2"/>
			<rect id="variable-front-veil" x="1534.7" y="1361.6" class="st3" width="558.8" height="78.2"/>
		</g>
	</g>
</g>
<g>
	<rect x="60" y="104.9" class="st3" width="480" height="48"/>
	<line class="st6" x1="109" y1="152.9" x2="109" y2="104.9"/>
	<line class="st6" x1="157" y1="152.9" x2="157" y2="104.9"/>
	<line class="st6" x1="205" y1="152.9" x2="205" y2="104.9"/>
	<line class="st6" x1="253" y1="152.9" x2="253" y2="104.9"/>
	<line class="st6" x1="301" y1="152.9" x2="301" y2="104.9"/>
	<line class="st6" x1="349" y1="152.9" x2="349" y2="104.9"/>
	<line class="st6" x1="397" y1="152.9" x2="397" y2="104.9"/>
	<line class="st6" x1="445" y1="152.9" x2="445" y2="104.9"/>
	<line class="st6" x1="493" y1="152.9" x2="493" y2="104.9"/>
	<rect x="60" y="104.9" class="st2" width="48" height="48"/>
</g>
<g>
	<rect x="817.1" y="104.9" class="st3" width="480" height="48"/>
	<line class="st6" x1="866.1" y1="152.9" x2="866.1" y2="104.9"/>
	<line class="st6" x1="914.1" y1="152.9" x2="914.1" y2="104.9"/>
	<line class="st6" x1="962.1" y1="152.9" x2="962.1" y2="104.9"/>
	<line class="st6" x1="1010.1" y1="152.9" x2="1010.1" y2="104.9"/>
	<line class="st6" x1="1058.1" y1="152.9" x2="1058.1" y2="104.9"/>
	<line class="st6" x1="1106.1" y1="152.9" x2="1106.1" y2="104.9"/>
	<line class="st6" x1="1154.1" y1="152.9" x2="1154.1" y2="104.9"/>
	<line class="st6" x1="1202.1" y1="152.9" x2="1202.1" y2="104.9"/>
	<line class="st6" x1="1250.1" y1="152.9" x2="1250.1" y2="104.9"/>
	<rect x="817.1" y="104.9" class="st2" width="48" height="48"/>
</g>
<g>
	<rect x="1574.1" y="104.9" class="st3" width="480" height="48"/>
	<line class="st6" x1="1623.1" y1="152.9" x2="1623.1" y2="104.9"/>
	<line class="st6" x1="1671.1" y1="152.9" x2="1671.1" y2="104.9"/>
	<line class="st6" x1="1719.1" y1="152.9" x2="1719.1" y2="104.9"/>
	<line class="st6" x1="1767.1" y1="152.9" x2="1767.1" y2="104.9"/>
	<line class="st6" x1="1815.2" y1="152.9" x2="1815.2" y2="104.9"/>
	<line class="st6" x1="1863.2" y1="152.9" x2="1863.2" y2="104.9"/>
	<line class="st6" x1="1911.2" y1="152.9" x2="1911.2" y2="104.9"/>
	<line class="st6" x1="1959.2" y1="152.9" x2="1959.2" y2="104.9"/>
	<line class="st6" x1="2007.2" y1="152.9" x2="2007.2" y2="104.9"/>
	<rect x="1574.1" y="104.9" class="st2" width="48" height="48"/>
</g>
<g>
	<rect x="2331.2" y="104.9" class="st3" width="480" height="48"/>
	<line class="st6" x1="2380.2" y1="152.9" x2="2380.2" y2="104.9"/>
	<line class="st6" x1="2428.2" y1="152.9" x2="2428.2" y2="104.9"/>
	<line class="st6" x1="2476.2" y1="152.9" x2="2476.2" y2="104.9"/>
	<line class="st6" x1="2524.2" y1="152.9" x2="2524.2" y2="104.9"/>
	<line class="st6" x1="2572.2" y1="152.9" x2="2572.2" y2="104.9"/>
	<line class="st6" x1="2620.2" y1="152.9" x2="2620.2" y2="104.9"/>
	<line class="st6" x1="2668.2" y1="152.9" x2="2668.2" y2="104.9"/>
	<line class="st6" x1="2716.2" y1="152.9" x2="2716.2" y2="104.9"/>
	<line class="st6" x1="2764.2" y1="152.9" x2="2764.2" y2="104.9"/>
	<rect x="2331.2" y="104.9" class="st2" width="48" height="48"/>
</g>
<g>
	<rect x="3088.3" y="104.9" class="st3" width="480" height="48"/>
	<line class="st6" x1="3137.3" y1="152.9" x2="3137.3" y2="104.9"/>
	<line class="st6" x1="3185.3" y1="152.9" x2="3185.3" y2="104.9"/>
	<line class="st6" x1="3233.3" y1="152.9" x2="3233.3" y2="104.9"/>
	<line class="st6" x1="3281.3" y1="152.9" x2="3281.3" y2="104.9"/>
	<line class="st6" x1="3329.3" y1="152.9" x2="3329.3" y2="104.9"/>
	<line class="st6" x1="3377.3" y1="152.9" x2="3377.3" y2="104.9"/>
	<line class="st6" x1="3425.3" y1="152.9" x2="3425.3" y2="104.9"/>
	<line class="st6" x1="3473.3" y1="152.9" x2="3473.3" y2="104.9"/>
	<line class="st6" x1="3521.3" y1="152.9" x2="3521.3" y2="104.9"/>
	<rect x="3088.3" y="104.9" class="st2" width="48" height="48"/>
</g>
<g id="batman">
	<path d="M2116.3,2128.2c35,107.7,100.9,209.9,263.8,209.9c159.5,0,239.6-104.4,239.6-204.6c0-80.7-25.6-179-99.6-253c524.2,0,831.7,396.7,831.7,613.7c0,175.3-88.8,339.1-185.7,428c-96.9,88.8-312.2,201.9-339.1,215.3c67.3-99.6,88.8-188.4,78.1-234.2c-10.8-45.8-37-121.1-156.1-121.1c-110.4,0-246.5,121.1-271.3,153.4c0,0-78.9-153.9-180.8-153.9c-100.3,0-121.3,27.9-180.5,89.8V2128.2z"/>
	<polyline points="1982.3,1084.9 1916.4,1280.1 2048.2,1280.1 1982.3,1084.9 	"/>
	<path d="M1512,2128.2c-35,107.7-100.9,209.9-263.8,209.9c-159.5,0-239.6-104.4-239.6-204.6c0-80.7,25.6-179,99.6-253c-524.2,0-831.7,396.7-831.7,613.7c0,175.3,88.8,339.1,185.7,428s312.2,201.9,339.1,215.3c-67.3-99.6-88.8-188.4-78.1-234.2c10.8-45.8,37-121.1,156.1-121.1c110.4,0,246.5,121.1,271.3,153.4c0,0,78.9-153.9,180.8-153.9c100.3,0,121.3,27.9,180.5,89.8V2128.2z"/>
	<polyline points="1646,1084.9 1711.9,1280.1 1580.1,1280.1 1646,1084.9"/>
</g>
</svg>
