<?xml version="1.0" encoding="utf-8"?>
<!-- Generator: Adobe Illustrator 23.0.1, SVG Export Plug-In . SVG Version: 6.00 Build 0)  -->
<svg version="1.1" id="Livello_1" xmlns="http://www.w3.org/2000/svg" xmlns:xlink="http://www.w3.org/1999/xlink" x="0px" y="0px"
	 viewBox="0 0 3628.3 3186.1" style="enable-background:new 0 0 3628.3 3186.1;" xml:space="preserve">
<style type="text/css">
	.st0{fill:#F7BECA;}
	.st1{fill:#FFFFFF;}
	.st2{fill:#EB5D78;}
	.st3{fill:none;stroke:#FFFFFF;stroke-width:10;stroke-miterlimit:10;}
</style>
<path d="M1468.8,1277.3V786.9c0-87.4,70.8-158.2,158.2-158.2h374.3c87.4,0,158.2,70.8,158.2,158.2v490.5H1468.8z"/>
<circle cx="1814.2" cy="1566.9" r="311.1"/>
<rect x="1503.9" y="1568.8" width="620.5" height="985.5"/>
<rect x="1534.7" y="691.2" class="st0" width="558.9" height="530.7"/>
<g>
	<g>
		<circle class="st1" cx="1667.8" cy="927.8" r="44.1"/>
		<circle cx="1667.8" cy="927.8" r="21.8"/>
	</g>
	<g>
		<circle class="st1" cx="1960.5" cy="927.8" r="44.1"/>
		<circle cx="1960.5" cy="927.8" r="21.8"/>
	</g>
</g>
<polygon class="st2" points="1780.4,1028.8 1814.2,974.6 1814.2,974.6 1848,1028.8 "/>
<path class="st3" d="M1855.7,1091c0,22.9-18.6,41.5-41.5,41.5s-41.5-18.6-41.5-41.5"/>
<line class="st3" x1="1814.2" y1="1255.8" x2="1814.2" y2="2557.5"/>
<g>
	<rect x="1534.7" y="691.2" class="st1" width="558.8" height="78.2"/>
	<rect x="1534.7" y="730.5" class="st1" width="558.8" height="78.2"/>
</g>
</svg>
